<mxfile host="app.diagrams.net" modified="2023-05-30T13:23:58.301Z" agent="5.0 (Macintosh; Intel Mac OS X 10_15_7) AppleWebKit/537.36 (KHTML, like Gecko) Chrome/113.0.0.0 Safari/537.36" etag="NNAalaoOLvq9nbHqpTjU" version="20.8.20" type="github">
  <diagram name="第 1 页" id="PI_QuVFH4fkAx-CwKwVk">
    <mxGraphModel dx="1026" dy="577" grid="1" gridSize="10" guides="1" tooltips="1" connect="1" arrows="1" fold="1" page="1" pageScale="1" pageWidth="827" pageHeight="1169" math="0" shadow="0">
      <root>
        <mxCell id="0" />
        <mxCell id="1" parent="0" />
        <mxCell id="36onjVhr9xYpolE1KqcA-1" value="Security inspection dangerous goods identification and detection platform" style="rounded=0;whiteSpace=wrap;html=1;" vertex="1" parent="1">
          <mxGeometry x="370" y="200" width="230" height="50" as="geometry" />
        </mxCell>
        <mxCell id="36onjVhr9xYpolE1KqcA-2" value="&lt;font style=&quot;font-size: 12px;&quot;&gt;Select weights&lt;/font&gt;" style="rounded=0;whiteSpace=wrap;html=1;horizontal=1;fontSize=13;labelPosition=center;verticalLabelPosition=middle;align=center;verticalAlign=middle;" vertex="1" parent="1">
          <mxGeometry x="270" y="310" width="60" height="160" as="geometry" />
        </mxCell>
        <mxCell id="36onjVhr9xYpolE1KqcA-3" value="Model initialization" style="rounded=0;whiteSpace=wrap;html=1;" vertex="1" parent="1">
          <mxGeometry x="360" y="310" width="60" height="160" as="geometry" />
        </mxCell>
        <mxCell id="36onjVhr9xYpolE1KqcA-4" value="Image detection" style="rounded=0;whiteSpace=wrap;html=1;" vertex="1" parent="1">
          <mxGeometry x="455" y="310" width="60" height="160" as="geometry" />
        </mxCell>
        <mxCell id="36onjVhr9xYpolE1KqcA-5" value="Video detection" style="rounded=0;whiteSpace=wrap;html=1;" vertex="1" parent="1">
          <mxGeometry x="550" y="310" width="60" height="160" as="geometry" />
        </mxCell>
        <mxCell id="36onjVhr9xYpolE1KqcA-6" value="Camera detection" style="rounded=0;whiteSpace=wrap;html=1;" vertex="1" parent="1">
          <mxGeometry x="650" y="310" width="60" height="160" as="geometry" />
        </mxCell>
        <mxCell id="36onjVhr9xYpolE1KqcA-7" value="" style="endArrow=none;html=1;rounded=0;entryX=0.5;entryY=1;entryDx=0;entryDy=0;exitX=0.5;exitY=0;exitDx=0;exitDy=0;" edge="1" parent="1" source="36onjVhr9xYpolE1KqcA-4" target="36onjVhr9xYpolE1KqcA-1">
          <mxGeometry width="50" height="50" relative="1" as="geometry">
            <mxPoint x="390" y="380" as="sourcePoint" />
            <mxPoint x="440" y="330" as="targetPoint" />
          </mxGeometry>
        </mxCell>
        <mxCell id="36onjVhr9xYpolE1KqcA-8" value="" style="endArrow=none;html=1;rounded=0;exitX=0.5;exitY=0;exitDx=0;exitDy=0;" edge="1" parent="1" source="36onjVhr9xYpolE1KqcA-2">
          <mxGeometry width="50" height="50" relative="1" as="geometry">
            <mxPoint x="300" y="300" as="sourcePoint" />
            <mxPoint x="300" y="270" as="targetPoint" />
          </mxGeometry>
        </mxCell>
        <mxCell id="36onjVhr9xYpolE1KqcA-9" value="" style="endArrow=none;html=1;rounded=0;" edge="1" parent="1">
          <mxGeometry width="50" height="50" relative="1" as="geometry">
            <mxPoint x="300" y="270" as="sourcePoint" />
            <mxPoint x="680" y="270" as="targetPoint" />
          </mxGeometry>
        </mxCell>
        <mxCell id="36onjVhr9xYpolE1KqcA-10" value="" style="endArrow=none;html=1;rounded=0;exitX=0.5;exitY=0;exitDx=0;exitDy=0;" edge="1" parent="1" source="36onjVhr9xYpolE1KqcA-3">
          <mxGeometry width="50" height="50" relative="1" as="geometry">
            <mxPoint x="390" y="380" as="sourcePoint" />
            <mxPoint x="390" y="270" as="targetPoint" />
          </mxGeometry>
        </mxCell>
        <mxCell id="36onjVhr9xYpolE1KqcA-11" value="" style="endArrow=none;html=1;rounded=0;exitX=0.5;exitY=0;exitDx=0;exitDy=0;" edge="1" parent="1" source="36onjVhr9xYpolE1KqcA-5">
          <mxGeometry width="50" height="50" relative="1" as="geometry">
            <mxPoint x="200" y="240" as="sourcePoint" />
            <mxPoint x="580" y="270" as="targetPoint" />
          </mxGeometry>
        </mxCell>
        <mxCell id="36onjVhr9xYpolE1KqcA-12" value="" style="endArrow=none;html=1;rounded=0;exitX=0.5;exitY=0;exitDx=0;exitDy=0;" edge="1" parent="1" source="36onjVhr9xYpolE1KqcA-6">
          <mxGeometry width="50" height="50" relative="1" as="geometry">
            <mxPoint x="720" y="290" as="sourcePoint" />
            <mxPoint x="680" y="270" as="targetPoint" />
          </mxGeometry>
        </mxCell>
      </root>
    </mxGraphModel>
  </diagram>
</mxfile>
